<svg xmlns="http://www.w3.org/2000/svg" viewBox="0 0 1280 660" font-family="'SF Mono','Consolas',monospace">
  <defs>
    <marker id="a" viewBox="0 0 10 10" refX="9" refY="5" markerWidth="5" markerHeight="5" orient="auto"><path d="M0 0L10 5L0 10z" fill="#1abc9c"/></marker>
    <marker id="ar" viewBox="0 0 10 10" refX="9" refY="5" markerWidth="5" markerHeight="5" orient="auto"><path d="M0 0L10 5L0 10z" fill="#e74c3c"/></marker>
    <marker id="ab" viewBox="0 0 10 10" refX="9" refY="5" markerWidth="5" markerHeight="5" orient="auto"><path d="M0 0L10 5L0 10z" fill="#3498db"/></marker>
    <filter id="s"><feDropShadow dx="0" dy="1" stdDeviation="2" flood-color="#000" flood-opacity="0.5"/></filter>
  </defs>
  <rect width="1280" height="660" fill="#0a0a14"/>
  <pattern id="g" width="25" height="25" patternUnits="userSpaceOnUse"><path d="M25 0L0 0 0 25" fill="none" stroke="#ffffff03" stroke-width=".4"/></pattern>
  <rect width="1280" height="660" fill="url(#g)"/>

  <!-- Title -->
  <rect y="0" width="1280" height="28" fill="#0d0d17"/>
  <text x="16" y="18" fill="#1abc9c" font-size="9" font-weight="700" letter-spacing="2.5">TRIALMATCH AI</text>
  <text x="170" y="18" fill="#3a3a4a" font-size="8" letter-spacing=".8">CONTROLLER-DRIVEN MULTI-AGENT ARCHITECTURE — 8 AGENTS · 5 COMPONENTS · 3 MODES</text>

  <!-- ═══ INPUTS ═══ -->
  <rect x="16" y="40" width="240" height="88" rx="3" fill="none" stroke="#9b59b618" stroke-dasharray="3,2"/>
  <text x="24" y="52" fill="#9b59b6" font-size="7" letter-spacing="1.2">INPUT LAYER</text>
  <rect x="24" y="60" width="66" height="30" rx="2" fill="#151520" stroke="#1abc9c40" filter="url(#s)"/><text x="57" y="74" text-anchor="middle" fill="#1abc9c" font-size="6.5" font-weight="600">📝 TEXT</text><text x="57" y="84" text-anchor="middle" fill="#4a4a5a" font-size="5">JSON</text>
  <rect x="98" y="60" width="66" height="30" rx="2" fill="#151520" stroke="#9b59b640" filter="url(#s)"/><text x="131" y="74" text-anchor="middle" fill="#9b59b6" font-size="6.5" font-weight="600">🎤 VOICE</text><text x="131" y="84" text-anchor="middle" fill="#4a4a5a" font-size="5">WAV/MP3</text>
  <rect x="172" y="60" width="66" height="30" rx="2" fill="#151520" stroke="#9b59b640" filter="url(#s)"/><text x="205" y="74" text-anchor="middle" fill="#9b59b6" font-size="6.5" font-weight="600">🖼️ IMAGE</text><text x="205" y="84" text-anchor="middle" fill="#4a4a5a" font-size="5">PNG/PDF</text>
  <rect x="24" y="96" width="214" height="22" rx="2" fill="#f0c27f08" stroke="#f0c27f30"/><text x="131" y="111" text-anchor="middle" fill="#f0c27f" font-size="6.5">🔊 Output: PDF · CSV · JSON · Audio TTS</text>

  <!-- ═══ CONTROLLER (Agent 0) ═══ -->
  <rect x="16" y="140" width="860" height="55" rx="3" fill="#1abc9c06" stroke="#1abc9c" stroke-width="1" filter="url(#s)"/>
  <rect x="16" y="140" width="860" height="14" rx="3" fill="#1abc9c12"/>
  <text x="28" y="151" fill="#1abc9c" font-size="7" font-weight="700" letter-spacing="1">AGENT 0 — CONTROLLER</text>
  <text x="866" y="151" text-anchor="end" fill="#3a3a4a" font-size="6">Dynamic orchestration · LLM-driven planning</text>

  <rect x="28" y="160" width="85" height="26" rx="2" fill="#151520" stroke="#1abc9c30"/><text x="70" y="172" text-anchor="middle" fill="#b0b0b0" font-size="6.5" font-weight="600">Planner</text><text x="70" y="181" text-anchor="middle" fill="#4a4a5a" font-size="5">Input → agents</text>
  <rect x="120" y="160" width="85" height="26" rx="2" fill="#151520" stroke="#1abc9c30"/><text x="162" y="172" text-anchor="middle" fill="#b0b0b0" font-size="6.5" font-weight="600">Router</text><text x="162" y="181" text-anchor="middle" fill="#4a4a5a" font-size="5">∥ Parallel / Seq</text>
  <rect x="212" y="160" width="85" height="26" rx="2" fill="#151520" stroke="#1abc9c30"/><text x="254" y="172" text-anchor="middle" fill="#b0b0b0" font-size="6.5" font-weight="600">Monitor</text><text x="254" y="181" text-anchor="middle" fill="#4a4a5a" font-size="5">Coverage check</text>
  <rect x="304" y="160" width="95" height="26" rx="2" fill="#151520" stroke="#e74c3c30"/><text x="351" y="172" text-anchor="middle" fill="#e74c3c" font-size="6.5" font-weight="600">Retry Logic</text><text x="351" y="181" text-anchor="middle" fill="#4a4a5a" font-size="5">cov &lt; 70% → retry</text>
  <rect x="406" y="160" width="100" height="26" rx="2" fill="#151520" stroke="#f0c27f30"/><text x="456" y="172" text-anchor="middle" fill="#f0c27f" font-size="6.5" font-weight="600">Model Selector</text><text x="456" y="181" text-anchor="middle" fill="#4a4a5a" font-size="5">FT ↔ LLM fallback</text>
  <rect x="513" y="160" width="100" height="26" rx="2" fill="#151520" stroke="#3498db30"/><text x="563" y="172" text-anchor="middle" fill="#3498db" font-size="6.5" font-weight="600">State Manager</text><text x="563" y="181" text-anchor="middle" fill="#4a4a5a" font-size="5">PipelineContext</text>
  <rect x="620" y="160" width="120" height="26" rx="2" fill="#151520" stroke="#1abc9c30"/><text x="680" y="172" text-anchor="middle" fill="#b0b0b0" font-size="6.5" font-weight="600">Execution Plan</text><text x="680" y="181" text-anchor="middle" fill="#4a4a5a" font-size="5">JSON trace · audit log</text>
  <rect x="747" y="160" width="120" height="26" rx="2" fill="#151520" stroke="#1abc9c30"/><text x="807" y="172" text-anchor="middle" fill="#b0b0b0" font-size="6.5" font-weight="600">Finalizer</text><text x="807" y="181" text-anchor="middle" fill="#4a4a5a" font-size="5">Summary · metrics</text>

  <!-- ═══ PARALLEL GROUP ═══ -->
  <rect x="16" y="208" width="380" height="95" rx="3" fill="none" stroke="#3498db15" stroke-dasharray="3,2"/>
  <text x="24" y="220" fill="#3498db" font-size="6.5" letter-spacing="1">PARALLEL GROUP — EXTRACTION</text>

  <rect x="24" y="228" width="110" height="65" rx="2" fill="#151520" stroke="#3498db60" filter="url(#s)"/>
  <rect x="24" y="228" width="110" height="12" rx="2" fill="#3498db15"/><text x="32" y="237" fill="#3498db" font-size="5.5" font-weight="700">A1 · NER</text>
  <text x="79" y="256" text-anchor="middle" fill="#b0b0b0" font-size="7" font-weight="600">Entity Extractor</text>
  <text x="79" y="268" text-anchor="middle" fill="#4a4a5a" font-size="5.5">Fine-tuned / LLM</text>
  <text x="79" y="279" text-anchor="middle" fill="#4a4a5a" font-size="5.5">+ RxNorm normalize</text>

  <rect x="146" y="228" width="110" height="65" rx="2" fill="#151520" stroke="#9b59b660" filter="url(#s)"/>
  <rect x="146" y="228" width="110" height="12" rx="2" fill="#9b59b615"/><text x="154" y="237" fill="#9b59b6" font-size="5.5" font-weight="700">A2 · VOICE</text>
  <text x="201" y="256" text-anchor="middle" fill="#b0b0b0" font-size="7" font-weight="600">Voice Processor</text>
  <text x="201" y="268" text-anchor="middle" fill="#4a4a5a" font-size="5.5">Whisper STT</text>
  <text x="201" y="279" text-anchor="middle" fill="#4a4a5a" font-size="5.5">→ entity parse</text>

  <rect x="268" y="228" width="118" height="65" rx="2" fill="#151520" stroke="#9b59b660" filter="url(#s)"/>
  <rect x="268" y="228" width="118" height="12" rx="2" fill="#9b59b615"/><text x="276" y="237" fill="#9b59b6" font-size="5.5" font-weight="700">A3 · VISION</text>
  <text x="327" y="256" text-anchor="middle" fill="#b0b0b0" font-size="7" font-weight="600">Image Analyzer</text>
  <text x="327" y="268" text-anchor="middle" fill="#4a4a5a" font-size="5.5">OCR + Vision LLM</text>
  <text x="327" y="279" text-anchor="middle" fill="#4a4a5a" font-size="5.5">Lab reports · Rx scans</text>

  <!-- Merge -->
  <circle cx="205" cy="318" r="8" fill="#151520" stroke="#1abc9c" stroke-width=".8"/>
  <text x="205" y="321" text-anchor="middle" fill="#1abc9c" font-size="7" font-weight="700">⊕</text>
  <text x="220" y="322" fill="#4a4a5a" font-size="5.5">merge</text>
  <line x1="79" y1="293" x2="197" y2="313" stroke="#3498db30" stroke-width=".7"/><line x1="201" y1="293" x2="205" y2="310" stroke="#9b59b630" stroke-width=".7"/><line x1="327" y1="293" x2="213" y2="313" stroke="#9b59b630" stroke-width=".7"/>

  <!-- ═══ SEQUENTIAL PIPELINE ═══ -->
  <rect x="16" y="335" width="860" height="85" rx="3" fill="none" stroke="#f0c27f10" stroke-dasharray="3,2"/>
  <text x="24" y="347" fill="#f0c27f" font-size="6.5" letter-spacing="1">SEQUENTIAL PIPELINE — CONTROLLER-MANAGED</text>

  <rect x="24" y="355" width="185" height="55" rx="2" fill="#151520" stroke="#1abc9c60" filter="url(#s)"/>
  <rect x="24" y="355" width="185" height="12" rx="2" fill="#1abc9c10"/><text x="32" y="364" fill="#1abc9c" font-size="5.5" font-weight="700">A4 · RAG</text>
  <text x="116" y="382" text-anchor="middle" fill="#b0b0b0" font-size="7" font-weight="600">Trial Retriever</text>
  <text x="116" y="393" text-anchor="middle" fill="#4a4a5a" font-size="5.5">ClinicalTrials.gov v2 + Qdrant vector</text>
  <text x="116" y="403" text-anchor="middle" fill="#4a4a5a" font-size="5.5">Semantic + keyword hybrid search</text>

  <rect x="225" y="355" width="185" height="55" rx="2" fill="#151520" stroke="#e74c3c60" filter="url(#s)"/>
  <rect x="225" y="355" width="185" height="12" rx="2" fill="#e74c3c10"/><text x="233" y="364" fill="#e74c3c" font-size="5.5" font-weight="700">A5 · FINE-TUNED</text>
  <text x="317" y="382" text-anchor="middle" fill="#b0b0b0" font-size="7" font-weight="600">Criteria Parser</text>
  <text x="317" y="393" text-anchor="middle" fill="#4a4a5a" font-size="5.5">BioBERT fine-tuned / few-shot LLM</text>
  <text x="317" y="403" text-anchor="middle" fill="#e74c3c" font-size="5">↻ Controller retry if coverage &lt; 70%</text>

  <rect x="426" y="355" width="185" height="55" rx="2" fill="#151520" stroke="#f0c27f60" filter="url(#s)"/>
  <rect x="426" y="355" width="185" height="12" rx="2" fill="#f0c27f10"/><text x="434" y="364" fill="#f0c27f" font-size="5.5" font-weight="700">A6 · CROSS-CHECK</text>
  <text x="518" y="382" text-anchor="middle" fill="#b0b0b0" font-size="7" font-weight="600">FDA Checker</text>
  <text x="518" y="393" text-anchor="middle" fill="#4a4a5a" font-size="5.5">OpenFDA drug labels · CYP3A4</text>
  <text x="518" y="403" text-anchor="middle" fill="#4a4a5a" font-size="5.5">Conditional: if medications exist</text>

  <rect x="627" y="355" width="240" height="55" rx="2" fill="#151520" stroke="#1abc9c60" filter="url(#s)"/>
  <rect x="627" y="355" width="240" height="12" rx="2" fill="#1abc9c10"/><text x="635" y="364" fill="#1abc9c" font-size="5.5" font-weight="700">A7 · OUTPUT</text>
  <text x="747" y="382" text-anchor="middle" fill="#b0b0b0" font-size="7" font-weight="600">Eligibility Scorer + Report Gen</text>
  <text x="747" y="393" text-anchor="middle" fill="#4a4a5a" font-size="5.5">Match ranking · NL explanations · Audit trail</text>
  <text x="747" y="403" text-anchor="middle" fill="#4a4a5a" font-size="5.5">PDF/CSV/JSON export · TTS audio summary</text>

  <!-- Sequential arrows -->
  <line x1="205" y1="326" x2="116" y2="355" stroke="#1abc9c40" stroke-width=".8" marker-end="url(#a)"/>
  <line x1="209" y1="382" x2="225" y2="382" stroke="#1abc9c40" stroke-width=".8" marker-end="url(#a)"/>
  <line x1="410" y1="382" x2="426" y2="382" stroke="#f0c27f40" stroke-width=".8" marker-end="url(#a)"/>
  <line x1="611" y1="382" x2="627" y2="382" stroke="#1abc9c40" stroke-width=".8" marker-end="url(#a)"/>

  <!-- Retry arc -->
  <path d="M317 410 Q317 432 460 432 Q600 432 600 415" fill="none" stroke="#e74c3c25" stroke-width=".7" stroke-dasharray="3,2"/>
  <text x="460" y="444" text-anchor="middle" fill="#e74c3c" font-size="5.5">← Controller retry loop</text>

  <!-- ═══ SHARED STATE BAR ═══ -->
  <rect x="16" y="430" width="860" height="28" rx="2" fill="#151520" stroke="#3a3a4a30"/>
  <text x="28" y="446" fill="#3a3a4a" font-size="6" font-weight="600" letter-spacing=".8">PIPELINE CONTEXT</text>
  <text x="160" y="446" fill="#4a4a5a" font-size="5.5">patient_profile · entities · trials · criteria · interactions · scores · execution_plan · controller_decisions · agent_results</text>

  <!-- ═══ RIGHT: EXTERNAL ═══ -->
  <rect x="895" y="40" width="370" height="120" rx="3" fill="none" stroke="#3498db15" stroke-dasharray="3,2"/>
  <text x="903" y="53" fill="#3498db" font-size="7" letter-spacing="1">GOVERNMENT APIs</text>
  <rect x="903" y="62" width="170" height="28" rx="2" fill="#151520" stroke="#3498db40" filter="url(#s)"/><text x="988" y="78" text-anchor="middle" fill="#b0b0b0" font-size="6.5" font-weight="600">ClinicalTrials.gov v2</text><text x="988" y="87" text-anchor="middle" fill="#4a4a5a" font-size="5">400K+ studies · REST</text>
  <rect x="1083" y="62" width="170" height="28" rx="2" fill="#151520" stroke="#3498db40" filter="url(#s)"/><text x="1168" y="78" text-anchor="middle" fill="#b0b0b0" font-size="6.5" font-weight="600">OpenFDA Drug Labels</text><text x="1168" y="87" text-anchor="middle" fill="#4a4a5a" font-size="5">Interactions · FAERS</text>
  <rect x="903" y="96" width="170" height="28" rx="2" fill="#151520" stroke="#3498db40" filter="url(#s)"/><text x="988" y="112" text-anchor="middle" fill="#b0b0b0" font-size="6.5" font-weight="600">NCI Cancer Trials</text><text x="988" y="121" text-anchor="middle" fill="#4a4a5a" font-size="5">Biomarker-enriched</text>
  <rect x="1083" y="96" width="170" height="28" rx="2" fill="#151520" stroke="#3498db40" filter="url(#s)"/><text x="1168" y="112" text-anchor="middle" fill="#b0b0b0" font-size="6.5" font-weight="600">RxNorm (NLM)</text><text x="1168" y="121" text-anchor="middle" fill="#4a4a5a" font-size="5">Drug normalization</text>
  <rect x="903" y="130" width="350" height="16" rx="2" fill="#e74c3c06"/><text x="1078" y="142" text-anchor="middle" fill="#4a4a5a" font-size="5.5">⚠ Patient data NEVER transmitted — condition-level queries only</text>

  <!-- LLM Backends -->
  <rect x="895" y="170" width="370" height="72" rx="3" fill="none" stroke="#e74c3c15" stroke-dasharray="3,2"/>
  <text x="903" y="183" fill="#e74c3c" font-size="7" letter-spacing="1">LLM BACKENDS · 3 MODES</text>
  <rect x="903" y="192" width="110" height="40" rx="2" fill="#151520" stroke="#1abc9c50" filter="url(#s)"/><text x="958" y="210" text-anchor="middle" fill="#1abc9c" font-size="7">🎯 Demo</text><text x="958" y="222" text-anchor="middle" fill="#4a4a5a" font-size="5.5">Cached · No setup</text>
  <rect x="1023" y="192" width="110" height="40" rx="2" fill="#151520" stroke="#f0c27f50" filter="url(#s)"/><text x="1078" y="210" text-anchor="middle" fill="#f0c27f" font-size="7">🦙 Ollama</text><text x="1078" y="222" text-anchor="middle" fill="#4a4a5a" font-size="5.5">Local · Mistral/Llama</text>
  <rect x="1143" y="192" width="110" height="40" rx="2" fill="#151520" stroke="#e74c3c50" filter="url(#s)"/><text x="1198" y="210" text-anchor="middle" fill="#e74c3c" font-size="7">🔑 API</text><text x="1198" y="222" text-anchor="middle" fill="#4a4a5a" font-size="5.5">OpenAI · Anthropic</text>

  <!-- Data -->
  <rect x="895" y="255" width="370" height="72" rx="3" fill="none" stroke="#1abc9c15" stroke-dasharray="3,2"/>
  <text x="903" y="268" fill="#1abc9c" font-size="7" letter-spacing="1">DATA &amp; STORAGE</text>
  <rect x="903" y="278" width="170" height="38" rx="2" fill="#151520" stroke="#1abc9c40" filter="url(#s)"/><text x="988" y="295" text-anchor="middle" fill="#b0b0b0" font-size="6.5" font-weight="600">Qdrant Vector DB</text><text x="988" y="307" text-anchor="middle" fill="#4a4a5a" font-size="5">MiniLM/PubMedBERT · cosine</text>
  <rect x="1083" y="278" width="170" height="38" rx="2" fill="#151520" stroke="#f0c27f40" filter="url(#s)"/><text x="1168" y="295" text-anchor="middle" fill="#b0b0b0" font-size="6.5" font-weight="600">Synthetic Patient DB</text><text x="1168" y="307" text-anchor="middle" fill="#4a4a5a" font-size="5">LLM-generated · Diverse</text>

  <!-- Fine-tuned -->
  <rect x="895" y="340" width="370" height="68" rx="3" fill="none" stroke="#e74c3c15" stroke-dasharray="3,2"/>
  <text x="903" y="353" fill="#e74c3c" font-size="7" letter-spacing="1">FINE-TUNED MODELS (COLAB → LOCAL)</text>
  <rect x="903" y="362" width="170" height="38" rx="2" fill="#151520" stroke="#e74c3c40" filter="url(#s)"/><text x="988" y="379" text-anchor="middle" fill="#b0b0b0" font-size="6.5" font-weight="600">Criteria Parser</text><text x="988" y="391" text-anchor="middle" fill="#4a4a5a" font-size="5">BioBERT · Colab → weights</text>
  <rect x="1083" y="362" width="170" height="38" rx="2" fill="#151520" stroke="#e74c3c40" filter="url(#s)"/><text x="1168" y="379" text-anchor="middle" fill="#b0b0b0" font-size="6.5" font-weight="600">Medical NER</text><text x="1168" y="391" text-anchor="middle" fill="#4a4a5a" font-size="5">Token class · Colab → weights</text>

  <!-- Cross-connections -->
  <line x1="876" y1="382" x2="903" y2="100" stroke="#3498db12" stroke-width=".6" stroke-dasharray="2,3"/>
  <line x1="876" y1="382" x2="903" y2="295" stroke="#1abc9c12" stroke-width=".6" stroke-dasharray="2,3"/>
  <line x1="876" y1="382" x2="903" y2="380" stroke="#e74c3c12" stroke-width=".6" stroke-dasharray="2,3"/>

  <!-- Legend -->
  <rect x="895" y="420" width="370" height="38" rx="2" fill="#0d0d17" stroke="#3a3a4a20"/>
  <text x="903" y="434" fill="#3a3a4a" font-size="6" letter-spacing=".6">COMPONENTS</text>
  <rect x="970" y="427" width="30" height="10" rx="2" fill="#2c3e50"/><text x="985" y="435" text-anchor="middle" fill="#c8c8d8" font-size="4.5">PE</text>
  <rect x="1005" y="427" width="30" height="10" rx="2" fill="#c0392b"/><text x="1020" y="435" text-anchor="middle" fill="#fff" font-size="4.5">FT</text>
  <rect x="1040" y="427" width="30" height="10" rx="2" fill="#16a085"/><text x="1055" y="435" text-anchor="middle" fill="#fff" font-size="4.5">RAG</text>
  <rect x="1075" y="427" width="30" height="10" rx="2" fill="#8e44ad"/><text x="1090" y="435" text-anchor="middle" fill="#fff" font-size="4.5">MM</text>
  <rect x="1110" y="427" width="30" height="10" rx="2" fill="#d4a053"/><text x="1125" y="435" text-anchor="middle" fill="#fff" font-size="4.5">SDG</text>
  <text x="903" y="451" fill="#3a3a4a" font-size="5.5">── data │ ╌╌ control │ ⊕ merge │ ↻ retry</text>
</svg>
